<svg width="16" height="16" viewBox="0 0 24 24" fill="none" xmlns="http://www.w3.org/2000/svg">
<path fill-rule="evenodd" clip-rule="evenodd" d="M9.76212 12.3154C7.60857 11.8649 6 9.94411 6 7.67933C5.99945 7.06336 6.12157 6.45336 6.35932 5.88437C6.59707 5.31539 6.94578 4.79864 7.38541 4.36381C7.82504 3.92899 8.34691 3.58466 8.92105 3.35062C9.49519 3.11658 10.1103 2.99744 10.731 3.00004C11.3516 2.99753 11.9666 3.11674 12.5407 3.35082C13.1147 3.5849 13.6365 3.92924 14.0761 4.36405C14.5156 4.79887 14.8643 5.31559 15.102 5.88453C15.3397 6.45347 15.4618 7.06342 15.4612 7.67933C15.5101 9.90484 13.9223 11.7982 11.8138 12.2906L11.8138 16.9827L11.9278 16.9827L14.4354 14.0506L16.829 14.0506L13.8655 17.4331L17 22L14.7773 22L12.4977 18.7292L11.8138 19.519L11.8138 21.9993L9.76212 21.9993L9.76212 12.3154ZM8.72016 5.68643C9.2541 5.15821 9.97704 4.8612 10.731 4.86031C12.3267 4.86031 13.6375 6.15704 13.5805 7.67933C13.5773 8.42752 13.2757 9.144 12.7418 9.67223C12.2078 10.2004 11.4849 10.4975 10.731 10.4984C9.1922 10.4984 7.8814 9.25749 7.8814 7.67933C7.88466 6.93114 8.18622 6.21466 8.72016 5.68643Z" fill="black"/>
</svg>
